<svg xmlns="http://www.w3.org/2000/svg" width="23.837" height="23.837" viewBox="0 0 23.837 23.837"><defs><style>.a{fill:#00102b;}.b{fill:none;stroke:#005cab;}.b,.c{stroke-linecap:round;stroke-linejoin:round;stroke-width:0.75px;}.c{fill:#001326;stroke:#00b5f1;}</style></defs><ellipse class="a" cx="11.919" cy="11.919" rx="11.919" ry="11.919" transform="translate(0 0)"/><g transform="translate(9.088 5.958)"><path class="b" d="M72.175,265.509l2.057,5.338,1.692-4.392" transform="translate(-71.381 -258.925)"/><path class="c" d="M77.108,262.339v-.005a2.828,2.828,0,0,0-5.656,0v0l0,0v2.032a.8.8,0,0,0,.794.794.784.784,0,0,0,.657-.359l.005-.011a2.731,2.731,0,0,0,2.694.029v.443a.756.756,0,0,0,1.511,0v-2.928Z" transform="translate(-71.451 -259.506)"/><line class="b" y1="2.135" x2="0.795" transform="translate(2.866 9.787)"/><line class="b" y1="2.135" x2="0.795" transform="translate(2.218 8.076)"/><line class="b" y1="1.347" x2="0.501" transform="translate(1.571 7.154)"/></g></svg>