<svg xmlns="http://www.w3.org/2000/svg" width="58.063" height="58.529" viewBox="0 0 58.063 58.529"><defs><style>.a,.b{fill:none;stroke-linecap:round;stroke-linejoin:round;stroke-width:2.738px;}.a{stroke:#0046f5;}.b{stroke:#0ce8f9;}</style></defs><g transform="translate(-98.66 -646.758)"><line class="a" x1="31.031" y1="34.163" transform="translate(123.759 655.029)"/><line class="a" x2="29.205" y2="26.022" transform="translate(125.584 648.691)"/><rect class="b" width="16.428" height="16.428" rx="3.651" transform="translate(100.029 687.491)"/><rect class="a" width="16.428" height="16.428" rx="3.651" transform="translate(121.933 687.491)"/><rect class="a" width="16.428" height="16.428" rx="3.651" transform="translate(100.029 665.587)"/><path class="a" d="M125.584,665.587a3.651,3.651,0,0,0-3.651,3.65v9.127a3.652,3.652,0,0,0,3.651,3.651h9.127a3.651,3.651,0,0,0,3.65-3.651"/><circle class="b" cx="3.879" cy="3.879" r="3.879" transform="translate(104.364 692.225)"/><circle class="a" cx="3.137" cy="3.137" r="3.137" transform="translate(127.01 692.967)"/><line class="a" y2="16.077" transform="translate(108.243 665.937)"/><line class="b" y2="16.077" transform="translate(108.243 687.666)"/></g></svg>