<svg xmlns="http://www.w3.org/2000/svg" width="57.278" height="46.145" viewBox="0 0 57.278 46.145"><defs><style>.a,.b{fill:none;stroke-linecap:round;stroke-linejoin:round;stroke-width:2.738px;}.a{stroke:#0046f5;}.b{stroke:#0ce8f9;}</style></defs><g transform="translate(-618.203 -358.845)"><path class="a" d="M619.572,371.273h46.637c0,13.938-4.933,23.828-11.625,31.183a3.638,3.638,0,0,1-2.7,1.165H633.98a3.635,3.635,0,0,1-2.788-1.276C624.821,394.768,619.572,385.169,619.572,371.273Z"/><path class="a" d="M665.41,380.564s8.7-2.2,8.7,4.769-5.241,9.448-13.872,9.448"/><path class="b" d="M636.685,360.214c0,2.576-2.191,2.576-2.191,5.153"/><path class="b" d="M643.986,360.214c0,2.576-2.191,2.576-2.191,5.153"/><path class="b" d="M651.287,360.214c0,2.576-2.19,2.576-2.19,5.153"/><line class="a" x2="40.937" transform="translate(620.028 378.144)"/><line class="a" x2="20.121" transform="translate(622.96 389.096)"/></g></svg>