<svg xmlns="http://www.w3.org/2000/svg" width="88.264" height="88.264" viewBox="0 0 88.264 88.264"><defs><style>.a{fill:#f5f5f5;}.b{fill:#ccd96e;}.c{fill:#9fc351;}.d{fill:#769459;}.e{fill:#55381b;}.f{fill:#271e1a;}.g{fill:#71512b;}</style></defs><g transform="translate(0)"><circle class="a" cx="44.132" cy="44.132" r="44.132"/></g><g transform="translate(9.006 7.638)"><g transform="translate(0)"><g transform="translate(15.528)"><path class="b" d="M45.646,440.195a1.347,1.347,0,1,0-.835-2.484,23.806,23.806,0,0,1,1.193-16l-4.711-1.482-1.55,4.925a1.045,1.045,0,0,1-.623,2,17.369,17.369,0,0,0,10.706,21.341,7.944,7.944,0,0,1-1.321-3.124A23.657,23.657,0,0,1,45.646,440.195Z" transform="translate(-38.377 -407.807)"/><path class="c" d="M62.571,433.364a1.049,1.049,0,0,1,1.041-1.049,19.863,19.863,0,0,0-.914-6.287l-2.42-7.687-7.214,2.27a23.662,23.662,0,0,1,3.8,12.2,1.05,1.05,0,1,0-.017,1.927A23.639,23.639,0,0,1,52.315,447.5a7.955,7.955,0,0,1-1.2,2.951,19.9,19.9,0,0,0,12.348-16.059A1.047,1.047,0,0,1,62.571,433.364Z" transform="translate(-23.839 -409.958)"/><circle class="c" cx="1.049" cy="1.049" r="1.049" transform="translate(26.947 12.419)"/><path class="d" d="M41.846,444.33a1.347,1.347,0,1,1,.835,2.484,23.567,23.567,0,0,0,2.867,5.171,8.025,8.025,0,0,1-.137-1.467V435.647a8.026,8.026,0,0,1,8-8h2.61a8.026,8.026,0,0,1,8,8v14.871a7.949,7.949,0,0,1-.137,1.458,23.643,23.643,0,0,0,4.535-12.759,1.049,1.049,0,1,1,.017-1.938,23.714,23.714,0,0,0-6.929-16.059l-6.794-6.794-2.963,2.961a.823.823,0,0,1,.156.486.832.832,0,0,1-.829.837.843.843,0,0,1-.492-.159l-.711.711a1.657,1.657,0,1,1-1.837,2.758,1.62,1.62,0,0,1-.454-.45,23.693,23.693,0,0,0-5.745,22.765Zm21.562-15.384a1.049,1.049,0,1,1,1.051-1.051,1.048,1.048,0,0,1-1.051,1.051Zm-5.865-8.7a.837.837,0,1,1-.837.837h0A.837.837,0,0,1,57.543,420.246Z" transform="translate(-35.412 -414.426)"/><circle class="b" cx="2.032" cy="2.032" r="2.032" transform="translate(1.049 37.544)"/><path class="c" d="M54.088,433.334a1.814,1.814,0,1,0,1.814,1.814h0A1.813,1.813,0,0,0,54.088,433.334Z" transform="translate(-22.518 -392.848)"/><circle class="c" cx="1.049" cy="1.049" r="1.049" transform="translate(33.383 38.015)"/><path class="e" d="M53.659,420.6h-2.61a8.026,8.026,0,0,0-8,8v14.87a8.029,8.029,0,0,0,8,8h2.61a8.018,8.018,0,0,0,8-8V428.6A8.026,8.026,0,0,0,53.659,420.6Zm-5.075,27.936a1.049,1.049,0,1,1,1.049-1.049h0A1.048,1.048,0,0,1,48.584,448.537Zm9.109-20.922a1.657,1.657,0,0,1-1.415-2.527,1.049,1.049,0,1,1,1.79-.749,1.659,1.659,0,0,1-.377,3.276Z" transform="translate(-33.048 -407.379)"/><path class="f" d="M49.626,448.126a14.041,14.041,0,0,0,1.15-4.094,22.035,22.035,0,0,0,.122-4.184c-.079-1.375-.251-2.719-.456-4.034-.411-2.632-.955-5.139-1.246-7.638a17.44,17.44,0,0,1,.567-7.576,9.049,9.049,0,0,0-2.33,3.46,14.41,14.41,0,0,0-.906,4.145,25.072,25.072,0,0,0,.047,4.147c.116,1.358.3,2.683.5,3.983.4,2.6.869,5.1,1.026,7.584a20.723,20.723,0,0,1-.079,3.734,19.192,19.192,0,0,1-.869,3.822h0A9.937,9.937,0,0,0,49.626,448.126Z" transform="translate(-29.148 -407.379)"/><circle class="g" cx="1.049" cy="1.049" r="1.049" transform="translate(14.487 39.064)"/><path class="g" d="M49.391,423.655a1.66,1.66,0,1,0,2.283-.548,1.7,1.7,0,0,0-.492-.2,1.049,1.049,0,1,0-1.79.749Z" transform="translate(-26.159 -405.939)"/><path class="b" d="M39.489,432.082a.7.7,0,1,0-.7-.7h0A.7.7,0,0,0,39.489,432.082Z" transform="translate(-37.911 -395.885)"/><circle class="b" cx="1.049" cy="1.049" r="1.049" transform="translate(7.445 40.308)"/><circle class="c" cx="1.049" cy="1.049" r="1.049" transform="translate(29.047 6.203)"/><circle class="b" cx="1.049" cy="1.049" r="1.049" transform="translate(5.567 10.321)"/></g><g transform="translate(0 48.864)"><path class="c" d="M35.476,441.973a.306.306,0,0,0,.214-.056.276.276,0,0,0,.056-.2,1.457,1.457,0,0,0-.413-.991,1.583,1.583,0,0,0-1.246-.463,1.829,1.829,0,0,0-1.193.548,1.977,1.977,0,0,0-.615,1.552,1.75,1.75,0,0,0,.642,1.321,2.118,2.118,0,0,0,1.452.584,2.77,2.77,0,0,0,1.317-.381,1.092,1.092,0,0,1,.353-.146.267.267,0,0,1,.2.071.243.243,0,0,1,.073.176q0,.254-.767.615a3.7,3.7,0,0,1-1.58.362,2.751,2.751,0,0,1-2.021-.82,2.663,2.663,0,0,1-.82-1.951,2.22,2.22,0,0,1,.9-1.771,3.105,3.105,0,0,1,2.017-.737,2.9,2.9,0,0,1,2.182.754,2.466,2.466,0,0,1,.722,1.777c0,.148-.036.24-.111.274a1.1,1.1,0,0,1-.409.051H33.247c-.259,0-.388-.1-.388-.289s.135-.285.4-.274Z" transform="translate(-31.125 -434.47)"/><path class="c" d="M39.526,446.417a.488.488,0,0,0,.379.173c.088,0,.191-.071.31-.214s.218-.214.293-.214a.238.238,0,0,1,.186.1.329.329,0,0,1,.081.214.953.953,0,0,1-.383.694,1.136,1.136,0,0,1-.739.343,1.364,1.364,0,0,1-.756-.31,8.534,8.534,0,0,1-1.285-1.308c-.4-.482-.649-.722-.737-.722q-.048,0-.186.135c-.092.09-.191.184-.3.283a.537.537,0,0,0-.178.229,3.773,3.773,0,0,0-.017.492.546.546,0,0,0,.094.319.6.6,0,0,0,.418.178.692.692,0,0,1,.4.133.325.325,0,0,1,.073.214.213.213,0,0,1-.062.165.452.452,0,0,1-.278.06,4.989,4.989,0,0,1-.619-.051,4.977,4.977,0,0,0-.619-.051,4.286,4.286,0,0,0-.572.051,4.264,4.264,0,0,1-.572.051c-.285,0-.428-.09-.428-.268a.31.31,0,0,1,.069-.214.756.756,0,0,1,.428-.118.574.574,0,0,0,.454-.214.763.763,0,0,0,.1-.409V438.6a.557.557,0,0,0-.1-.332.785.785,0,0,0-.448-.214.965.965,0,0,1-.428-.167.292.292,0,0,1-.077-.214.219.219,0,0,1,.118-.175.466.466,0,0,1,.238-.071,1.548,1.548,0,0,1,.358.062,1.544,1.544,0,0,0,.381.062,1.791,1.791,0,0,0,.383-.049,1.856,1.856,0,0,1,.306-.049.291.291,0,0,1,.214.069.728.728,0,0,1,.128.373,9.339,9.339,0,0,1,.045,1.2v5.473c0,.116.041.173.124.173s.244-.163.563-.49l.916-.94a.183.183,0,0,0,.077-.118c0-.032-.056-.064-.167-.109a.214.214,0,0,1-.167-.214.3.3,0,0,1,.066-.214.4.4,0,0,1,.28-.071c.143,0,.287.015.428.032s.285.028.428.032a5.115,5.115,0,0,0,.572-.045,5.159,5.159,0,0,1,.572-.045.716.716,0,0,1,.351.083.263.263,0,0,1,.15.231c0,.182-.171.274-.514.274a2.97,2.97,0,0,0-1.043.124,2.255,2.255,0,0,0-.642.484c-.24.24-.375.377-.4.411a.208.208,0,0,0-.041.141.493.493,0,0,0,.161.34Z" transform="translate(-27.811 -437.043)"/><path class="c" d="M39.912,439.681a2.869,2.869,0,0,1,2.011.792,2.476,2.476,0,0,1,.255,3.494,2.618,2.618,0,0,1-.216.221,3.185,3.185,0,0,1-2.195.73,2.907,2.907,0,0,1-1.948-.743,2.334,2.334,0,0,1-.856-1.848,2.6,2.6,0,0,1,.76-1.852A2.9,2.9,0,0,1,39.912,439.681Zm0,4.625a1.573,1.573,0,0,0,1.285-.576,2.217,2.217,0,0,0,.475-1.458,2.023,2.023,0,0,0-.512-1.424,1.685,1.685,0,0,0-1.285-.555,1.523,1.523,0,0,0-1.25.546,2.135,2.135,0,0,0-.445,1.407,2.19,2.19,0,0,0,.492,1.5,1.6,1.6,0,0,0,1.246.561Z" transform="translate(-24.465 -434.476)"/><path class="e" d="M44,441.292a.553.553,0,0,0-.124.251.231.231,0,0,0,.056.133l3.569,4.792a1.057,1.057,0,0,0,.37.263.928.928,0,0,0,.338.083.418.418,0,0,1,.251.077.232.232,0,0,1,.111.2.331.331,0,0,1-.169.3.791.791,0,0,1-.428.1,2.214,2.214,0,0,1-1.184-.428,4.655,4.655,0,0,1-1.165-1.116l-2.482-3.272c-.051-.064-.088-.1-.111-.1s-.056.028-.1.083l-.906,1.152a.314.314,0,0,0-.056.188v2.287a.538.538,0,0,0,.1.325.676.676,0,0,0,.428.2.8.8,0,0,1,.392.139.268.268,0,0,1,.066.184c0,.083-.058.154-.173.214a1.039,1.039,0,0,1-.514.1,2.148,2.148,0,0,1-.452-.066,2.314,2.314,0,0,0-.514-.066,3.281,3.281,0,0,0-.677.079,2.9,2.9,0,0,1-.544.079.569.569,0,0,1-.319-.1.308.308,0,0,1-.152-.266.283.283,0,0,1,.069-.195.834.834,0,0,1,.452-.111.574.574,0,0,0,.5-.25,1.031,1.031,0,0,0,.118-.5v-7.28a.984.984,0,0,0-.113-.48.587.587,0,0,0-.486-.251.843.843,0,0,1-.441-.12.293.293,0,0,1-.069-.195.345.345,0,0,1,.152-.244.62.62,0,0,1,.415-.128,3.414,3.414,0,0,1,.642.077,3.613,3.613,0,0,0,.642.077,1.461,1.461,0,0,0,.428-.084,1.919,1.919,0,0,1,.593-.083.852.852,0,0,1,.441.1.281.281,0,0,1,.169.238.243.243,0,0,1-.084.182,1.034,1.034,0,0,1-.39.158,2.571,2.571,0,0,0-.428.139.427.427,0,0,0-.195.225,1.325,1.325,0,0,0-.073.5v3.758l.021.139.1-.1,3.083-4.068a.872.872,0,0,0,.229-.428.161.161,0,0,0-.073-.135.922.922,0,0,0-.37-.079.757.757,0,0,1-.39-.107.258.258,0,0,1-.09-.2.291.291,0,0,1,.15-.255.646.646,0,0,1,.36-.1,2.828,2.828,0,0,1,.484.056,2.634,2.634,0,0,0,.388.056,2.96,2.96,0,0,0,.456-.062,2.885,2.885,0,0,1,.505-.062.454.454,0,0,1,.306.1.33.33,0,0,1,.118.261.218.218,0,0,1-.06.15,1.438,1.438,0,0,1-.454.18,1.13,1.13,0,0,0-.612.411Z" transform="translate(-21.429 -437.188)"/><path class="e" d="M48.693,439.936c-.092-.212-.165-.319-.214-.319s-.141.148-.253.443l-1.482,3.394-1.285,2.858a.611.611,0,0,0-.056.229.26.26,0,0,0,.079.188.915.915,0,0,0,.379.167.887.887,0,0,1,.375.167.276.276,0,0,1,.077.191c0,.216-.139.323-.418.323a4.456,4.456,0,0,1-.475-.058,4.4,4.4,0,0,0-.627-.06,2.735,2.735,0,0,0-.529.051,2.468,2.468,0,0,1-.4.051.43.43,0,0,1-.285-.092.271.271,0,0,1-.111-.214.3.3,0,0,1,.069-.235.569.569,0,0,1,.257-.083,1.032,1.032,0,0,0,.743-.407,22.507,22.507,0,0,0,1.051-2.24l1.681-3.751q.62-1.346.794-1.788a2.051,2.051,0,0,0,.178-.685,1.327,1.327,0,0,0-.062-.3,1.458,1.458,0,0,1-.062-.317c0-.135.071-.2.214-.2a.666.666,0,0,1,.57.3,6.813,6.813,0,0,1,.576,1.126l1.927,4.349q1.05,2.374,1.325,2.938a2.784,2.784,0,0,0,.456.726,1.1,1.1,0,0,0,.428.24,1.091,1.091,0,0,1,.338.15.3.3,0,0,1,.09.246c0,.163-.143.244-.428.244q-.148,0-.533-.045a6.255,6.255,0,0,0-1.565.009,5.023,5.023,0,0,1-.567.051.733.733,0,0,1-.375-.081.248.248,0,0,1-.139-.214.253.253,0,0,1,.084-.2.923.923,0,0,1,.452-.111.751.751,0,0,0,.475-.156.425.425,0,0,0,.109-.3,4.268,4.268,0,0,0-.4-1.071,3.844,3.844,0,0,0-.492-.931.83.83,0,0,0-.375-.056H47.2a.517.517,0,0,1-.325-.116.336.336,0,0,1-.146-.27.269.269,0,0,1,.116-.214.408.408,0,0,1,.259-.092H50.08q.251,0,.251-.09a1.015,1.015,0,0,0-.1-.27Z" transform="translate(-17.037 -437.247)"/><path class="e" d="M57.6,444.807l.084.152q.042,0,.09-.167l1.848-5.95a1.411,1.411,0,0,0,.077-.4c0-.25-.148-.375-.443-.375a.567.567,0,0,1-.345-.1.3.3,0,0,1-.141-.248.307.307,0,0,1,.152-.272.658.658,0,0,1,.375-.1,2.558,2.558,0,0,1,.381.056,2.84,2.84,0,0,0,.57.056,4.757,4.757,0,0,0,.578-.056,4.911,4.911,0,0,1,.587-.056c.315,0,.471.113.471.338a.292.292,0,0,1-.15.268.576.576,0,0,1-.3.09.988.988,0,0,0-.621.24,1.278,1.278,0,0,0-.428.642q-1.5,5.046-2.591,8.473l-.084.291c-.041.143-.122.214-.244.214a.251.251,0,0,1-.18-.083,1.157,1.157,0,0,1-.188-.4l-2.227-6.71c-.051-.152-.088-.229-.111-.229s-.058.077-.1.229l-1.976,6.71a1.1,1.1,0,0,1-.173.4.236.236,0,0,1-.171.073.213.213,0,0,1-.195-.094,2.832,2.832,0,0,1-.154-.407l-2.814-8.5a1.7,1.7,0,0,0-.3-.574.782.782,0,0,0-.475-.24,1.059,1.059,0,0,1-.4-.116.3.3,0,0,1-.09-.257c0-.238.165-.358.492-.358a2.577,2.577,0,0,1,.46.06,3.583,3.583,0,0,0,.677.058,3.29,3.29,0,0,0,.632-.066,2.882,2.882,0,0,1,.45-.066.764.764,0,0,1,.415.1.322.322,0,0,1,.167.283c0,.221-.163.336-.486.351-.251.011-.375.094-.375.251a1.56,1.56,0,0,0,.111.428q.514,1.371,2,6,.055.161.09.161c.024,0,.047-.049.075-.146l2.1-7.023a1.162,1.162,0,0,1,.111-.3.174.174,0,0,1,.154-.073c.1,0,.191.1.257.3Z" transform="translate(-11.969 -437.158)"/><path class="e" d="M58.181,441.292a.553.553,0,0,0-.124.251.237.237,0,0,0,.056.133l3.569,4.792a1.057,1.057,0,0,0,.37.263.928.928,0,0,0,.338.083.418.418,0,0,1,.251.077.232.232,0,0,1,.111.2.333.333,0,0,1-.171.3.791.791,0,0,1-.428.1,2.214,2.214,0,0,1-1.184-.428,4.654,4.654,0,0,1-1.165-1.116l-2.482-3.272c-.051-.064-.088-.1-.111-.1s-.056.028-.1.083l-.906,1.152a.314.314,0,0,0-.056.188v2.287a.537.537,0,0,0,.1.325.676.676,0,0,0,.428.2.8.8,0,0,1,.392.139.268.268,0,0,1,.066.184c0,.083-.058.156-.173.214a1.039,1.039,0,0,1-.514.1,2.148,2.148,0,0,1-.452-.066,2.279,2.279,0,0,0-.512-.066,3.282,3.282,0,0,0-.677.079,2.9,2.9,0,0,1-.544.079.569.569,0,0,1-.319-.1.3.3,0,0,1-.152-.266.283.283,0,0,1,.069-.195.816.816,0,0,1,.452-.111.574.574,0,0,0,.5-.25,1.031,1.031,0,0,0,.118-.5v-7.28a.961.961,0,0,0-.113-.48.587.587,0,0,0-.486-.251.837.837,0,0,1-.441-.12.282.282,0,0,1-.069-.195.345.345,0,0,1,.152-.244.643.643,0,0,1,.415-.128,3.244,3.244,0,0,1,.642.077,3.614,3.614,0,0,0,.642.077,1.461,1.461,0,0,0,.428-.084,1.919,1.919,0,0,1,.593-.083.85.85,0,0,1,.439.1.281.281,0,0,1,.169.238.243.243,0,0,1-.084.182,1.011,1.011,0,0,1-.388.158,2.785,2.785,0,0,0-.428.139.427.427,0,0,0-.195.225,1.284,1.284,0,0,0-.073.5v3.758l.021.139.1-.1,3.083-4.068a.872.872,0,0,0,.229-.428.161.161,0,0,0-.073-.135.922.922,0,0,0-.37-.079.757.757,0,0,1-.39-.107.258.258,0,0,1-.09-.2.291.291,0,0,1,.15-.255.646.646,0,0,1,.36-.1,2.828,2.828,0,0,1,.484.056,2.634,2.634,0,0,0,.388.056,2.96,2.96,0,0,0,.456-.062,2.885,2.885,0,0,1,.505-.062.454.454,0,0,1,.306.1.33.33,0,0,1,.118.261.216.216,0,0,1-.058.15,1.47,1.47,0,0,1-.456.18,1.125,1.125,0,0,0-.61.411Z" transform="translate(-5.253 -437.188)"/><path class="e" d="M63.15,439.936c-.092-.212-.165-.319-.214-.319s-.135.148-.253.443L61.2,443.454l-1.285,2.858a.655.655,0,0,0-.056.229.269.269,0,0,0,.079.188.915.915,0,0,0,.379.167.887.887,0,0,1,.375.167.276.276,0,0,1,.077.191c0,.216-.139.323-.418.323a4.457,4.457,0,0,1-.475-.058,4.117,4.117,0,0,0-.63-.06,2.713,2.713,0,0,0-.527.051,2.468,2.468,0,0,1-.4.051.43.43,0,0,1-.285-.092.271.271,0,0,1-.111-.214.3.3,0,0,1,.069-.235.578.578,0,0,1,.257-.083,1.032,1.032,0,0,0,.743-.407,22.5,22.5,0,0,0,1.051-2.24l1.681-3.751q.617-1.346.794-1.788a2,2,0,0,0,.178-.685,1.327,1.327,0,0,0-.062-.3,1.341,1.341,0,0,1-.062-.317c0-.135.071-.2.214-.2a.666.666,0,0,1,.57.3,7.16,7.16,0,0,1,.576,1.126l1.927,4.349q1.05,2.374,1.328,2.938a2.784,2.784,0,0,0,.456.726,1.1,1.1,0,0,0,.428.24,1.091,1.091,0,0,1,.338.15.3.3,0,0,1,.09.246c0,.163-.143.244-.428.244q-.145,0-.533-.045a6.256,6.256,0,0,0-1.565.009,5.022,5.022,0,0,1-.567.051.741.741,0,0,1-.377-.081.244.244,0,0,1-.139-.214.256.256,0,0,1,.083-.2.923.923,0,0,1,.452-.111.751.751,0,0,0,.475-.156.433.433,0,0,0,.107-.3,4.267,4.267,0,0,0-.4-1.071,3.92,3.92,0,0,0-.492-.931.83.83,0,0,0-.375-.056h-3.1a.517.517,0,0,1-.325-.116.342.342,0,0,1-.146-.27.261.261,0,0,1,.113-.214.414.414,0,0,1,.261-.092h2.974q.251,0,.251-.09a1.015,1.015,0,0,0-.1-.27Z" transform="translate(-0.539 -437.247)"/></g><g transform="translate(13.684 63.3)"><path class="f" d="M38.987,444.806v.411c0,.505-.244.779-.739.779h-.236v1.186h-.5v-3.158h.73C38.743,444.024,38.987,444.3,38.987,444.806Zm-.974-.33v1.071h.236c.158,0,.244-.073.244-.3v-.473c0-.225-.086-.3-.244-.3Z" transform="translate(-37.516 -443.949)"/><path class="f" d="M38.716,444.822a.754.754,0,0,1,1.5-.161.67.67,0,0,1,0,.161v1.642a.754.754,0,0,1-1.5.161.671.671,0,0,1,0-.161Zm.5,1.674c0,.225.1.31.257.31s.257-.086.257-.31v-1.713c0-.225-.1-.31-.257-.31s-.257.086-.257.31Z" transform="translate(-36.153 -443.989)"/><path class="f" d="M41.4,444.025v.441l-.942,2.263H41.4v.452H39.952v-.441l.942-2.265H40v-.452Z" transform="translate(-34.736 -443.95)"/><path class="f" d="M41.637,444.9h0v2.287h-.445v-3.158h.623l.5,1.891h0v-1.891h.441v3.158h-.51Z" transform="translate(-33.321 -443.949)"/><path class="f" d="M44.187,447.182h-.5l-.086-.574h-.608l-.086.574H42.45l.505-3.158h.726Zm-1.133-1h.477l-.233-1.6h0Z" transform="translate(-31.885 -443.949)"/><path class="f" d="M43.727,446.733H43.9c.158,0,.285-.058.285-.3v-2.409h.5v2.372c0,.632-.338.794-.713.794a2.237,2.237,0,0,1-.238,0Z" transform="translate(-30.428 -443.951)"/><path class="f" d="M46.209,444.007c.482,0,.73.289.73.794v.1h-.477v-.131c0-.225-.09-.311-.248-.311s-.248.086-.248.311.1.4.428.685a1.224,1.224,0,0,1,.546.987c0,.505-.253.794-.739.794s-.739-.289-.739-.794v-.195h.469v.227c0,.225.1.306.257.306s.257-.081.257-.306-.1-.4-.428-.685a1.224,1.224,0,0,1-.546-.987C45.479,444.3,45.728,444.007,46.209,444.007Z" transform="translate(-28.448 -443.968)"/><path class="f" d="M47.75,446.262h0l.334-2.242h.689v3.158H48.3v-2.263h0l-.334,2.263H47.5l-.36-2.233h0v2.233h-.428V444.02H47.4Z" transform="translate(-27.019 -443.953)"/><path class="f" d="M49.944,447.182h-.5l-.086-.574h-.6l-.086.574h-.456l.505-3.158h.726Zm-1.133-1h.477l-.236-1.6h0Z" transform="translate(-25.31 -443.949)"/><path class="f" d="M50.2,445.923l-.154.289v.97h-.5v-3.158h.5v1.366h0l.642-1.366h.5l-.689,1.407.689,1.749h-.51Z" transform="translate(-23.783 -443.949)"/><path class="f" d="M52.243,445.923l-.154.289v.97h-.5v-3.158h.5v1.366h0l.642-1.366h.5l-.689,1.407.689,1.749h-.51Z" transform="translate(-21.453 -443.949)"/><path class="f" d="M54.558,447.182h-.5l-.086-.574h-.608l-.086.574h-.456l.505-3.158h.726Zm-1.133-1h.48l-.236-1.6h0Z" transform="translate(-20.049 -443.949)"/><path class="f" d="M55.295,445.5h0l-.176,1.681h-.681l-.351-3.158h.482l.261,2.49h0l.233-2.49h.477l.244,2.507h0l.253-2.507h.428l-.353,3.158h-.647Z" transform="translate(-18.605 -443.95)"/><path class="f" d="M56.294,446.135l-.627-2.111h.518l.375,1.439h0l.375-1.439h.473l-.627,2.111v1.045h-.5Z" transform="translate(-16.802 -443.949)"/></g></g></g></svg>