<svg xmlns="http://www.w3.org/2000/svg" width="139.106" height="136.324" viewBox="0 0 139.106 136.324"><defs><style>.a{fill:#ccd96e;}.b{fill:#9fc351;}.c{fill:#769459;}.d{fill:#55381b;}.e{fill:#271e1a;}.f{fill:#71512b;}</style></defs><g transform="translate(-45.076 -422.631)"><g transform="translate(45.076 422.631)"><g transform="translate(31.78)"><path class="a" d="M53.255,461.095a2.757,2.757,0,1,0-1.709-5.083,48.723,48.723,0,0,1,2.441-32.753l-9.641-3.032-3.173,10.079a2.139,2.139,0,0,1-1.275,4.084,35.548,35.548,0,0,0,21.911,43.678,16.258,16.258,0,0,1-2.7-6.394A48.417,48.417,0,0,1,53.255,461.095Z" transform="translate(-38.377 -394.809)"/><path class="b" d="M74.561,449.087a2.147,2.147,0,0,1,2.13-2.147,40.653,40.653,0,0,0-1.871-12.866l-4.952-15.732L55.1,422.986a48.428,48.428,0,0,1,7.787,24.979,2.148,2.148,0,1,0-.035,3.944,48.381,48.381,0,0,1-9.286,26.114,16.281,16.281,0,0,1-2.454,6.039,40.727,40.727,0,0,0,25.272-32.867A2.143,2.143,0,0,1,74.561,449.087Z" transform="translate(4.71 -401.184)"/><circle class="b" cx="2.147" cy="2.147" r="2.147" transform="translate(55.151 25.417)"/><path class="c" d="M42.757,475.629a2.756,2.756,0,1,1,1.709,5.083A48.233,48.233,0,0,0,50.334,491.3a16.424,16.424,0,0,1-.28-3V457.859A16.426,16.426,0,0,1,66.43,441.482h5.342a16.426,16.426,0,0,1,16.377,16.376v30.435a16.269,16.269,0,0,1-.28,2.984,48.389,48.389,0,0,0,9.282-26.114,2.147,2.147,0,1,1,.035-3.966A48.535,48.535,0,0,0,83,428.331l-13.9-13.9-6.065,6.061a1.683,1.683,0,0,1,.32.995,1.7,1.7,0,0,1-1.7,1.713,1.726,1.726,0,0,1-1.008-.324L59.2,424.325a3.391,3.391,0,1,1-3.76,5.644,3.316,3.316,0,0,1-.929-.92,48.491,48.491,0,0,0-11.758,46.592Zm44.129-31.487a2.147,2.147,0,1,1,.009,0Zm-12-17.805a1.713,1.713,0,1,1-1.713,1.714h0A1.713,1.713,0,0,1,74.884,426.337Z" transform="translate(-29.589 -414.426)"/><circle class="a" cx="4.159" cy="4.159" r="4.159" transform="translate(2.146 76.839)"/><path class="b" d="M55.986,433.334a3.712,3.712,0,1,0,3.712,3.712h0A3.711,3.711,0,0,0,55.986,433.334Z" transform="translate(8.626 -350.474)"/><circle class="b" cx="2.147" cy="2.147" r="2.147" transform="translate(68.324 77.803)"/><path class="d" d="M64.765,420.6H59.423a16.426,16.426,0,0,0-16.376,16.376v30.435a16.432,16.432,0,0,0,16.376,16.376h5.342a16.41,16.41,0,0,0,16.377-16.376V436.977A16.426,16.426,0,0,0,64.765,420.6ZM54.38,477.776a2.147,2.147,0,1,1,2.147-2.147h0A2.145,2.145,0,0,1,54.38,477.776Zm18.642-42.819a3.392,3.392,0,0,1-2.9-5.171,2.147,2.147,0,1,1,3.664-1.534,3.4,3.4,0,0,1-.771,6.7Z" transform="translate(-22.582 -393.54)"/><path class="e" d="M52.936,476.935a28.737,28.737,0,0,0,2.353-8.379,45.1,45.1,0,0,0,.25-8.563c-.162-2.813-.513-5.565-.933-8.256-.841-5.386-1.954-10.517-2.55-15.631a35.694,35.694,0,0,1,1.161-15.5,18.519,18.519,0,0,0-4.768,7.082,29.493,29.493,0,0,0-1.854,8.484,51.314,51.314,0,0,0,.1,8.488c.237,2.778.618,5.491,1.03,8.151.824,5.324,1.779,10.438,2.1,15.522a42.413,42.413,0,0,1-.162,7.643,39.279,39.279,0,0,1-1.779,7.822h0A20.337,20.337,0,0,0,52.936,476.935Z" transform="translate(-11.024 -393.54)"/><circle class="f" cx="2.147" cy="2.147" r="2.147" transform="translate(29.651 79.95)"/><path class="f" d="M49.714,425.531a3.4,3.4,0,1,0,4.671-1.122A3.485,3.485,0,0,0,53.378,424a2.147,2.147,0,1,0-3.664,1.534Z" transform="translate(-2.166 -389.272)"/><path class="a" d="M40.227,433.556a1.442,1.442,0,1,0-1.442-1.442h0A1.44,1.44,0,0,0,40.227,433.556Z" transform="translate(-36.997 -359.474)"/><circle class="a" cx="2.147" cy="2.147" r="2.147" transform="translate(15.237 82.496)"/><circle class="b" cx="2.147" cy="2.147" r="2.147" transform="translate(59.45 12.695)"/><circle class="a" cx="2.147" cy="2.147" r="2.147" transform="translate(11.394 21.123)"/></g><g transform="translate(0 100.007)"><path class="b" d="M40.03,444.373a.627.627,0,0,0,.438-.114.565.565,0,0,0,.114-.408,2.982,2.982,0,0,0-.846-2.029,3.239,3.239,0,0,0-2.55-.947A3.743,3.743,0,0,0,34.745,442a4.046,4.046,0,0,0-1.258,3.177,3.582,3.582,0,0,0,1.315,2.7,4.335,4.335,0,0,0,2.971,1.2,5.669,5.669,0,0,0,2.7-.78,2.236,2.236,0,0,1,.723-.3.547.547,0,0,1,.4.145.5.5,0,0,1,.149.359q0,.519-1.569,1.258a7.579,7.579,0,0,1-3.234.74,5.629,5.629,0,0,1-4.137-1.678,5.45,5.45,0,0,1-1.678-3.992,4.543,4.543,0,0,1,1.841-3.624,6.355,6.355,0,0,1,4.128-1.508,5.932,5.932,0,0,1,4.466,1.543,5.047,5.047,0,0,1,1.477,3.637c0,.3-.074.491-.228.561a2.254,2.254,0,0,1-.837.105h-6.5c-.53,0-.793-.2-.793-.592s.276-.583.824-.561Z" transform="translate(-31.125 -429.018)"/><path class="b" d="M45.279,455.827a1,1,0,0,0,.776.355c.18,0,.39-.145.635-.438s.447-.438.6-.438a.487.487,0,0,1,.381.206.673.673,0,0,1,.167.438,1.951,1.951,0,0,1-.784,1.42,2.326,2.326,0,0,1-1.512.7A2.792,2.792,0,0,1,44,457.435a17.467,17.467,0,0,1-2.629-2.678c-.828-.986-1.328-1.477-1.507-1.477q-.1,0-.381.276c-.188.184-.39.377-.609.579a1.1,1.1,0,0,0-.364.469,7.724,7.724,0,0,0-.035,1.008,1.119,1.119,0,0,0,.193.653,1.235,1.235,0,0,0,.855.364,1.417,1.417,0,0,1,.811.272.665.665,0,0,1,.149.438.436.436,0,0,1-.127.337.926.926,0,0,1-.57.123,10.207,10.207,0,0,1-1.266-.105,10.182,10.182,0,0,0-1.266-.105,8.768,8.768,0,0,0-1.17.105,8.724,8.724,0,0,1-1.17.105c-.583,0-.876-.184-.876-.548a.635.635,0,0,1,.14-.438,1.548,1.548,0,0,1,.876-.241,1.174,1.174,0,0,0,.929-.438,1.561,1.561,0,0,0,.215-.837V439.827a1.14,1.14,0,0,0-.206-.679,1.607,1.607,0,0,0-.916-.438,1.976,1.976,0,0,1-.876-.342.6.6,0,0,1-.158-.438.449.449,0,0,1,.241-.359.954.954,0,0,1,.486-.145,3.166,3.166,0,0,1,.732.127,3.156,3.156,0,0,0,.78.127,3.662,3.662,0,0,0,.784-.1,3.8,3.8,0,0,1,.627-.1.6.6,0,0,1,.438.14,1.49,1.49,0,0,1,.263.763,19.115,19.115,0,0,1,.092,2.454v11.2c0,.237.083.355.254.355s.5-.333,1.153-1l1.876-1.924a.374.374,0,0,0,.158-.241c0-.066-.114-.131-.342-.224a.437.437,0,0,1-.342-.438.611.611,0,0,1,.136-.438.813.813,0,0,1,.574-.145c.294.009.587.031.876.066s.583.057.876.066a10.489,10.489,0,0,0,1.17-.092,10.548,10.548,0,0,1,1.17-.092,1.465,1.465,0,0,1,.719.171.539.539,0,0,1,.307.473c0,.372-.351.561-1.052.561a6.078,6.078,0,0,0-2.134.254,4.615,4.615,0,0,0-1.315.99c-.491.491-.767.771-.824.841a.425.425,0,0,0-.083.289,1.009,1.009,0,0,0,.329.7Z" transform="translate(-21.303 -436.641)"/><path class="b" d="M43,439.688a5.871,5.871,0,0,1,4.115,1.621,5.068,5.068,0,0,1,.521,7.152,5.353,5.353,0,0,1-.443.451,6.52,6.52,0,0,1-4.492,1.494,5.95,5.95,0,0,1-3.988-1.521,4.777,4.777,0,0,1-1.753-3.782,5.318,5.318,0,0,1,1.556-3.791A5.934,5.934,0,0,1,43,439.688Zm0,9.466a3.218,3.218,0,0,0,2.629-1.179,4.537,4.537,0,0,0,.973-2.984,4.14,4.14,0,0,0-1.047-2.914,3.448,3.448,0,0,0-2.629-1.135,3.116,3.116,0,0,0-2.559,1.117,4.37,4.37,0,0,0-.912,2.879,4.482,4.482,0,0,0,1.008,3.068,3.277,3.277,0,0,0,2.55,1.148Z" transform="translate(-11.386 -429.035)"/><path class="d" d="M48.592,445.472a1.132,1.132,0,0,0-.254.513.473.473,0,0,0,.114.272l7.305,9.807a2.163,2.163,0,0,0,.758.539,1.9,1.9,0,0,0,.692.171.856.856,0,0,1,.513.158.475.475,0,0,1,.228.4.678.678,0,0,1-.346.6,1.618,1.618,0,0,1-.876.215,4.53,4.53,0,0,1-2.423-.876,9.525,9.525,0,0,1-2.384-2.283l-5.079-6.7c-.105-.131-.18-.2-.228-.2s-.114.057-.2.171L44.56,450.63a.643.643,0,0,0-.114.386v4.68a1.1,1.1,0,0,0,.206.666,1.384,1.384,0,0,0,.876.412,1.638,1.638,0,0,1,.8.285.548.548,0,0,1,.136.377c0,.171-.118.315-.355.438a2.126,2.126,0,0,1-1.052.206,4.4,4.4,0,0,1-.925-.136,4.733,4.733,0,0,0-1.052-.136,6.72,6.72,0,0,0-1.385.162,5.935,5.935,0,0,1-1.113.162,1.164,1.164,0,0,1-.653-.206.631.631,0,0,1-.311-.543.579.579,0,0,1,.14-.4,1.707,1.707,0,0,1,.925-.228,1.176,1.176,0,0,0,1.025-.513,2.109,2.109,0,0,0,.241-1.03v-14.9a2.014,2.014,0,0,0-.232-.982,1.2,1.2,0,0,0-.995-.513,1.725,1.725,0,0,1-.9-.245.6.6,0,0,1-.14-.4.706.706,0,0,1,.311-.5,1.269,1.269,0,0,1,.85-.263,6.988,6.988,0,0,1,1.315.158,7.392,7.392,0,0,0,1.315.158,2.991,2.991,0,0,0,.876-.171,3.929,3.929,0,0,1,1.214-.171,1.746,1.746,0,0,1,.9.206.576.576,0,0,1,.346.486.5.5,0,0,1-.171.373,2.117,2.117,0,0,1-.8.324,5.265,5.265,0,0,0-.876.285.874.874,0,0,0-.4.46,2.711,2.711,0,0,0-.149,1.026v7.691l.044.285.2-.2,6.31-8.326a1.785,1.785,0,0,0,.469-.876.329.329,0,0,0-.149-.276,1.886,1.886,0,0,0-.758-.162,1.549,1.549,0,0,1-.8-.219.528.528,0,0,1-.184-.416.6.6,0,0,1,.307-.521,1.321,1.321,0,0,1,.736-.2,5.783,5.783,0,0,1,.99.114,5.389,5.389,0,0,0,.793.114,6.051,6.051,0,0,0,.933-.127,5.9,5.9,0,0,1,1.034-.127.928.928,0,0,1,.627.21.676.676,0,0,1,.241.535.446.446,0,0,1-.123.307,2.942,2.942,0,0,1-.929.368,2.312,2.312,0,0,0-1.253.841Z" transform="translate(-2.389 -437.071)"/><path class="d" d="M54.159,442.751c-.188-.434-.337-.653-.438-.653s-.289.3-.517.907l-3.033,6.946-2.629,5.85a1.251,1.251,0,0,0-.114.469.533.533,0,0,0,.162.386,1.873,1.873,0,0,0,.776.342,1.815,1.815,0,0,1,.767.342.566.566,0,0,1,.158.39c0,.443-.285.662-.855.662a9.1,9.1,0,0,1-.973-.118,9.006,9.006,0,0,0-1.284-.123,5.6,5.6,0,0,0-1.082.105,5.055,5.055,0,0,1-.811.105.879.879,0,0,1-.583-.188.554.554,0,0,1-.228-.438.615.615,0,0,1,.14-.482,1.165,1.165,0,0,1,.526-.171,2.113,2.113,0,0,0,1.521-.833,46.062,46.062,0,0,0,2.152-4.584l3.44-7.678q1.269-2.754,1.626-3.659a4.2,4.2,0,0,0,.364-1.4,2.716,2.716,0,0,0-.127-.618,2.983,2.983,0,0,1-.127-.649c0-.276.145-.412.438-.412a1.363,1.363,0,0,1,1.166.609,13.944,13.944,0,0,1,1.179,2.305l3.944,8.9q2.15,4.858,2.713,6.013a5.7,5.7,0,0,0,.933,1.485,2.254,2.254,0,0,0,.876.491,2.231,2.231,0,0,1,.692.307.6.6,0,0,1,.184.5c0,.333-.294.5-.876.5q-.3,0-1.091-.092a12.8,12.8,0,0,0-3.2.018,10.271,10.271,0,0,1-1.161.105,1.5,1.5,0,0,1-.767-.167.507.507,0,0,1-.285-.438.518.518,0,0,1,.171-.4,1.889,1.889,0,0,1,.925-.228,1.537,1.537,0,0,0,.973-.32.87.87,0,0,0,.224-.618,8.736,8.736,0,0,0-.811-2.191A7.868,7.868,0,0,0,58.2,452.12a1.7,1.7,0,0,0-.767-.114H51.1a1.057,1.057,0,0,1-.666-.237.688.688,0,0,1-.3-.552.551.551,0,0,1,.237-.438.835.835,0,0,1,.53-.188H57q.513,0,.513-.184a2.078,2.078,0,0,0-.2-.552Z" transform="translate(10.629 -437.247)"/><path class="d" d="M67.746,452.638l.171.311q.085,0,.184-.342l3.782-12.178a2.888,2.888,0,0,0,.158-.815c0-.513-.3-.767-.907-.767a1.161,1.161,0,0,1-.706-.21.618.618,0,0,1-.289-.508.629.629,0,0,1,.311-.557,1.347,1.347,0,0,1,.767-.206,5.233,5.233,0,0,1,.78.114,5.809,5.809,0,0,0,1.166.114,9.737,9.737,0,0,0,1.183-.114,10.05,10.05,0,0,1,1.2-.114c.644,0,.964.232.964.692a.6.6,0,0,1-.307.548,1.179,1.179,0,0,1-.6.184,2.022,2.022,0,0,0-1.271.491,2.616,2.616,0,0,0-.876,1.315q-3.07,10.327-5.3,17.341l-.171.6c-.083.294-.25.438-.5.438a.513.513,0,0,1-.368-.171,2.368,2.368,0,0,1-.386-.824l-4.558-13.734c-.105-.311-.18-.469-.228-.469s-.118.158-.215.469L57.68,457.975a2.243,2.243,0,0,1-.355.82.484.484,0,0,1-.351.149.437.437,0,0,1-.4-.193,5.8,5.8,0,0,1-.316-.833l-5.758-17.4a3.471,3.471,0,0,0-.618-1.174,1.6,1.6,0,0,0-.973-.491,2.168,2.168,0,0,1-.811-.237.621.621,0,0,1-.184-.526c0-.486.337-.732,1.008-.732a5.281,5.281,0,0,1,.942.123,7.327,7.327,0,0,0,1.385.118,6.734,6.734,0,0,0,1.293-.136,5.9,5.9,0,0,1,.92-.136,1.564,1.564,0,0,1,.85.21.659.659,0,0,1,.342.579c0,.451-.333.688-.995.719-.513.022-.767.193-.767.513a3.191,3.191,0,0,0,.228.876q1.052,2.807,4.1,12.27.112.329.184.329c.048,0,.1-.1.153-.3l4.3-14.374a2.378,2.378,0,0,1,.228-.618.356.356,0,0,1,.316-.149c.215,0,.39.206.526.613Z" transform="translate(25.649 -436.984)"/><path class="d" d="M62.771,445.472a1.132,1.132,0,0,0-.254.513.485.485,0,0,0,.114.272l7.305,9.807a2.163,2.163,0,0,0,.758.539,1.9,1.9,0,0,0,.692.171.856.856,0,0,1,.513.158.475.475,0,0,1,.228.4.682.682,0,0,1-.351.6,1.618,1.618,0,0,1-.876.215,4.53,4.53,0,0,1-2.423-.876,9.525,9.525,0,0,1-2.384-2.283l-5.079-6.7c-.105-.131-.18-.2-.228-.2s-.114.057-.2.171l-1.854,2.358a.643.643,0,0,0-.114.386v4.68a1.1,1.1,0,0,0,.206.666,1.384,1.384,0,0,0,.876.412,1.638,1.638,0,0,1,.8.285.548.548,0,0,1,.136.377c0,.171-.118.32-.355.438a2.126,2.126,0,0,1-1.052.206,4.4,4.4,0,0,1-.925-.136,4.662,4.662,0,0,0-1.047-.136,6.72,6.72,0,0,0-1.385.162,5.934,5.934,0,0,1-1.113.162,1.164,1.164,0,0,1-.653-.206.617.617,0,0,1-.311-.543.578.578,0,0,1,.14-.4,1.669,1.669,0,0,1,.925-.228,1.176,1.176,0,0,0,1.025-.513,2.109,2.109,0,0,0,.241-1.03v-14.9a1.966,1.966,0,0,0-.232-.982,1.2,1.2,0,0,0-.995-.513,1.715,1.715,0,0,1-.9-.245.578.578,0,0,1-.14-.4.706.706,0,0,1,.311-.5,1.316,1.316,0,0,1,.85-.263,6.643,6.643,0,0,1,1.315.158,7.392,7.392,0,0,0,1.315.158,2.991,2.991,0,0,0,.876-.171,3.929,3.929,0,0,1,1.214-.171,1.74,1.74,0,0,1,.9.206.576.576,0,0,1,.346.486.5.5,0,0,1-.171.373,2.069,2.069,0,0,1-.793.324,5.707,5.707,0,0,0-.876.285.874.874,0,0,0-.4.46,2.627,2.627,0,0,0-.149,1.026v7.691l.044.285.2-.2,6.31-8.326a1.785,1.785,0,0,0,.469-.876.329.329,0,0,0-.149-.276,1.886,1.886,0,0,0-.758-.162,1.549,1.549,0,0,1-.8-.219.528.528,0,0,1-.184-.416.6.6,0,0,1,.307-.521,1.321,1.321,0,0,1,.736-.2,5.783,5.783,0,0,1,.99.114,5.389,5.389,0,0,0,.793.114,6.051,6.051,0,0,0,.933-.127,5.9,5.9,0,0,1,1.034-.127.928.928,0,0,1,.627.21.676.676,0,0,1,.241.535.442.442,0,0,1-.118.307,3.008,3.008,0,0,1-.933.368,2.3,2.3,0,0,0-1.249.841Z" transform="translate(45.554 -437.071)"/><path class="d" d="M68.616,442.751c-.188-.434-.337-.653-.438-.653s-.276.3-.517.907l-3.033,6.946L62,455.8a1.34,1.34,0,0,0-.114.469.551.551,0,0,0,.162.386,1.873,1.873,0,0,0,.776.342,1.815,1.815,0,0,1,.767.342.566.566,0,0,1,.158.39c0,.443-.285.662-.855.662a9.106,9.106,0,0,1-.973-.118,8.43,8.43,0,0,0-1.288-.123,5.553,5.553,0,0,0-1.078.105,5.055,5.055,0,0,1-.811.105.879.879,0,0,1-.583-.188.554.554,0,0,1-.228-.438.615.615,0,0,1,.14-.482,1.182,1.182,0,0,1,.526-.171,2.113,2.113,0,0,0,1.521-.833,46.055,46.055,0,0,0,2.152-4.584l3.44-7.678q1.262-2.754,1.626-3.659a4.1,4.1,0,0,0,.364-1.4,2.716,2.716,0,0,0-.127-.618,2.744,2.744,0,0,1-.127-.649c0-.276.145-.412.438-.412a1.363,1.363,0,0,1,1.166.609,14.653,14.653,0,0,1,1.179,2.305l3.944,8.9q2.15,4.858,2.717,6.013a5.7,5.7,0,0,0,.933,1.485,2.254,2.254,0,0,0,.876.491,2.231,2.231,0,0,1,.692.307.6.6,0,0,1,.184.5c0,.333-.294.5-.876.5q-.3,0-1.091-.092a12.8,12.8,0,0,0-3.2.018,10.271,10.271,0,0,1-1.161.105,1.515,1.515,0,0,1-.771-.167.5.5,0,0,1-.285-.438.524.524,0,0,1,.171-.4,1.889,1.889,0,0,1,.925-.228,1.537,1.537,0,0,0,.973-.32.886.886,0,0,0,.219-.618,8.734,8.734,0,0,0-.811-2.191,8.024,8.024,0,0,0-1.008-1.906,1.7,1.7,0,0,0-.767-.114H65.548a1.057,1.057,0,0,1-.666-.237.7.7,0,0,1-.3-.552.535.535,0,0,1,.232-.438.847.847,0,0,1,.535-.188h6.087q.513,0,.513-.184a2.078,2.078,0,0,0-.2-.552Z" transform="translate(59.526 -437.247)"/></g><g transform="translate(28.007 129.552)"><path class="e" d="M40.527,445.624v.841c0,1.034-.5,1.6-1.512,1.6h-.482v2.428H37.516v-6.464H39.01C40.027,444.024,40.527,444.589,40.527,445.624Zm-1.994-.675v2.191h.482c.324,0,.5-.149.5-.609v-.969c0-.46-.175-.609-.5-.609Z" transform="translate(-37.516 -443.87)"/><path class="e" d="M38.721,445.694a1.543,1.543,0,0,1,3.068-.329,1.372,1.372,0,0,1,0,.329v3.361a1.543,1.543,0,0,1-3.068.329,1.374,1.374,0,0,1,0-.329Zm1.017,3.427c0,.46.2.635.526.635s.526-.175.526-.635v-3.506c0-.46-.2-.635-.526-.635s-.526.175-.526.635Z" transform="translate(-33.475 -443.989)"/><path class="e" d="M42.923,444.027v.9l-1.928,4.632h1.928v.925H39.952v-.9l1.928-4.636H40.044v-.925Z" transform="translate(-29.277 -443.874)"/><path class="e" d="M42.1,445.808h0v4.68h-.912v-6.464h1.275l1.025,3.87h0v-3.87h.9v6.464H43.352Z" transform="translate(-25.083 -443.87)"/><path class="e" d="M46,450.488H44.979l-.175-1.174H43.559l-.175,1.174H42.45l1.034-6.464H44.97Zm-2.318-2.051h.977l-.478-3.269h0Z" transform="translate(-20.828 -443.87)"/><path class="e" d="M43.727,449.57h.351c.324,0,.583-.118.583-.618v-4.93h1.017v4.856c0,1.293-.692,1.626-1.459,1.626a4.553,4.553,0,0,1-.486,0Z" transform="translate(-16.509 -443.877)"/><path class="e" d="M46.991,444.007c.986,0,1.494.592,1.494,1.626v.2h-.977v-.267c0-.46-.184-.635-.508-.635s-.508.175-.508.635.2.824.876,1.4a2.506,2.506,0,0,1,1.117,2.02c0,1.034-.517,1.626-1.512,1.626s-1.512-.592-1.512-1.626v-.4h.96v.464c0,.46.2.627.526.627s.526-.167.526-.627-.2-.824-.876-1.4a2.506,2.506,0,0,1-1.117-2.02C45.5,444.6,46.005,444.007,46.991,444.007Z" transform="translate(-10.641 -443.928)"/><path class="e" d="M48.835,448.608h0l.684-4.588H50.93v6.464h-.96v-4.632h0l-.684,4.632h-.96l-.736-4.571h0v4.571h-.876V444.02h1.411Z" transform="translate(-6.406 -443.884)"/><path class="e" d="M51.757,450.488H50.732l-.175-1.174H49.321l-.175,1.174h-.933l1.034-6.464h1.486Zm-2.318-2.051h.977l-.482-3.269h0Z" transform="translate(-1.339 -443.87)"/><path class="e" d="M50.882,447.911l-.316.592v1.985H49.55v-6.464h1.017v2.8h0l1.315-2.8H52.9L51.487,446.9l1.411,3.58H51.855Z" transform="translate(3.186 -443.87)"/><path class="e" d="M52.924,447.911l-.316.592v1.985H51.592v-6.464h1.017v2.8h0l1.315-2.8H54.94L53.529,446.9l1.411,3.58H53.9Z" transform="translate(10.093 -443.87)"/><path class="e" d="M56.376,450.488H55.351l-.175-1.174H53.931l-.175,1.174h-.933l1.034-6.464h1.486Zm-2.318-2.051h.982l-.482-3.269h0Z" transform="translate(14.253 -443.87)"/><path class="e" d="M56.559,447.047h0l-.359,3.44H54.806l-.719-6.464h.986l.535,5.1h0l.478-5.1h.977l.5,5.131h0l.517-5.131h.876l-.723,6.464H56.909Z" transform="translate(18.531 -443.874)"/><path class="e" d="M56.951,448.345l-1.284-4.321h1.061l.767,2.945h0l.767-2.945h.968l-1.284,4.321v2.138H56.929Z" transform="translate(23.875 -443.87)"/></g></g></g></svg>